<mxfile host="app.diagrams.net" modified="2024-07-19T17:43:42.221Z" agent="Mozilla/5.0 (Windows NT 10.0; Win64; x64) AppleWebKit/537.36 (KHTML, like Gecko) Chrome/126.0.0.0 Safari/537.36 Edg/126.0.0.0" version="24.7.2" etag="QmRkUwy95LP-G1bOfpyD" type="github">
  <diagram name="PÃ¡gina-1" id="OgudMSjNcMyAvJB-CKGw">
    <mxGraphModel>
      <root>
        <mxCell id="0" />
        <mxCell id="1" parent="0" />
      </root>
    </mxGraphModel>
  </diagram>
</mxfile>
